<svg xmlns="http://www.w3.org/2000/svg" width="118.239" height="41.452" viewBox="0 0 118.239 41.452"><defs><style>.a{fill:#999;}.b{fill:#f7bb5d;}.c{fill:#ff8006;}</style></defs><g transform="translate(0.371 -0.548)"><g transform="translate(-209.208 -397.376)"><path class="a" d="M724.072,420.928h5.542v4.382h-5.542v17.743h-5.456V425.31h-4.683V423.1c1.654-.951,5.8-3.19,5.8-8.7h4.341Z" transform="translate(-402.538 -13.129)"/><path class="a" d="M325.408,462.275a8.1,8.1,0,0,0,6.487-2.921l2.878,4.253a12.509,12.509,0,0,1-9.409,3.738c-7,0-11.428-5.027-11.428-11.557s4.425-11.557,11.428-11.557a12.509,12.509,0,0,1,9.409,3.738l-2.878,4.253a8.1,8.1,0,0,0-6.487-2.921c-3.566,0-6.015,2.578-6.015,6.487S321.842,462.275,325.408,462.275Z" transform="translate(-83.76 -36.904)"/><path class="a" d="M430.579,467.177c-5.714,0-10.612-4.3-10.612-11.557s4.9-11.6,10.612-11.6a9.36,9.36,0,0,1,6.745,2.664v-2.148h5.327v22.126h-5.327v-2.105A9.331,9.331,0,0,1,430.579,467.177Zm-5.2-11.557c0,4.253,2.664,6.7,6.144,6.7,3.179,0,5.929-2.449,5.929-6.7,0-4.3-2.75-6.745-5.929-6.745C428.044,448.875,425.38,451.324,425.38,455.62Z" transform="translate(-168.261 -36.736)"/><path class="a" d="M553.3,446.641a9.128,9.128,0,0,1,6.917-2.621c6.015,0,10.654,4.554,10.654,11.557s-4.64,11.6-10.654,11.6a9.153,9.153,0,0,1-6.917-2.664v11.6h-5.456V444.535H553.3Zm-.258,8.936c0,4.3,2.836,6.745,5.972,6.745,3.566,0,6.4-2.449,6.4-6.745,0-4.253-2.836-6.7-6.4-6.7C555.875,448.875,553.039,451.324,553.039,455.577Z" transform="translate(-270.17 -36.736)"/><path class="a" d="M671.082,401.275a3.355,3.355,0,0,1,3.351-3.351,3.319,3.319,0,0,1,3.308,3.351,3.33,3.33,0,0,1-6.659,0Z" transform="translate(-368.388 0)"/><rect class="a" width="5.456" height="22.126" transform="translate(303.339 407.799)"/><path class="a" d="M231.941,466.061c-.061-.039-.608-.389-.9-.63a7.6,7.6,0,0,1-.947-.97,13.1,13.1,0,0,1-.956-1.3c-.64-1-3.918-5.752-6.552-9.573l-.668-.97c-1.8-2.647-3.487-5.13-3.642-5.372a9.7,9.7,0,0,0-1.233-1.553,6.848,6.848,0,0,0-1.536-1.181,3.823,3.823,0,0,0-1.89-.493h-4.327a.473.473,0,0,0-.456.513.751.751,0,0,0,.328.622l.123-.189h0l-.123.189c.061.039.608.389.9.63a7.586,7.586,0,0,1,.947.97,13.066,13.066,0,0,1,.956,1.3c.638.994,3.9,5.728,6.524,9.532l.7,1.01c1.8,2.646,3.485,5.128,3.642,5.372a9.7,9.7,0,0,0,1.233,1.553A6.849,6.849,0,0,0,225.6,466.7a3.822,3.822,0,0,0,1.89.493h4.327a.472.472,0,0,0,.456-.512A.751.751,0,0,0,231.941,466.061Z" transform="translate(0 -36.736)"/><path class="b" d="M216.084,514.84l-.018-.025-.714-1.036c-1.614,2.348-3,4.367-3.386,4.977a13.092,13.092,0,0,1-.956,1.3,7.6,7.6,0,0,1-.947.97c-.289.242-.836.592-.9.63l.123.189-.123-.189a.751.751,0,0,0-.328.622.473.473,0,0,0,.456.513h4.327a3.821,3.821,0,0,0,1.89-.493,6.847,6.847,0,0,0,1.536-1.181,9.714,9.714,0,0,0,1.233-1.553c.046-.072.229-.344.51-.759l-2.013-2.962Z" transform="translate(0 -92.331)"/><path class="c" d="M277.912,451.93l.019.027.741,1.075c1.615-2.349,2.995-4.366,3.386-4.977a13.055,13.055,0,0,1,.956-1.3,7.576,7.576,0,0,1,.947-.97c.289-.242.836-.591.9-.63a.751.751,0,0,0,.329-.622.473.473,0,0,0-.456-.513H280.4a3.822,3.822,0,0,0-1.89.493,6.852,6.852,0,0,0-1.536,1.181,9.688,9.688,0,0,0-1.233,1.553c-.047.073-.229.345-.51.759l2.013,2.962Z" transform="translate(-52.917 -36.736)"/></g></g></svg>